<svg width="187" height="168" viewBox="0 0 187 168" fill="none" xmlns="http://www.w3.org/2000/svg">
<path d="M82.2649 41.2315L78.4143 42.297L82.2649 41.2315ZM162.774 167.005C164.702 168.072 167.137 167.389 168.214 165.478L185.762 134.343C186.839 132.432 186.15 130.018 184.222 128.95C182.295 127.883 179.859 128.566 178.782 130.477L163.184 158.153L135.263 142.689C133.335 141.622 130.9 142.305 129.823 144.216C128.746 146.126 129.436 148.541 131.363 149.608L162.774 167.005ZM0.899642 5.33367C19.0275 31.4475 41.4938 50.1755 58.5761 57.9794C62.8699 59.9411 66.9622 61.277 70.6614 61.8145C74.317 62.3457 77.948 62.1466 80.9998 60.6074C84.2314 58.9775 86.291 56.1073 87.0775 52.4487C87.8287 48.9548 87.4225 44.8068 86.1154 40.166L78.4143 42.297C79.541 46.2972 79.6345 49.0428 79.2575 50.7965C78.9159 52.3854 78.2195 53.1168 77.3736 53.5434C76.3479 54.0608 74.5796 54.3734 71.8207 53.9725C69.1054 53.578 65.7677 52.5381 61.9224 50.7814C46.4482 43.712 25.0111 26.0859 7.48641 0.840963L0.899642 5.33367ZM86.1154 40.166C85.5494 38.1563 85.3531 36.8232 85.3445 36.0274C85.3341 35.0704 85.5871 35.6409 84.8465 36.3264C83.8897 37.212 82.9358 36.8488 83.31 36.9528C83.6588 37.0498 84.4308 37.3935 85.6755 38.2601C90.6852 41.7483 98.9315 50.5078 108.457 63.1476C127.372 88.2459 150.139 127.03 160.877 164.625L168.571 162.466C157.485 123.657 134.155 84.0031 114.863 58.4043C105.285 45.6955 96.3999 36.0419 90.2711 31.7745C88.7311 30.7022 87.0931 29.7731 85.4691 29.3216C83.8706 28.8771 81.3813 28.6896 79.3894 30.5334C77.6136 32.177 77.3317 34.4881 77.3493 36.1123C77.3687 37.8976 77.7635 39.9862 78.4143 42.297L86.1154 40.166Z" fill="url(#paint0_linear_123_276)"/>
<defs>
<linearGradient id="paint0_linear_123_276" x1="153.087" y1="137.019" x2="14.6717" y2="24.9611" gradientUnits="userSpaceOnUse">
<stop stop-color="#EA7600"/>
<stop offset="1" stop-opacity="0.1"/>
</linearGradient>
</defs>
</svg>
