<svg width="108" height="200" viewBox="0 0 108 200" fill="none" xmlns="http://www.w3.org/2000/svg">
<path d="M16.892 192.968C15.4234 194.607 15.5675 197.114 17.214 198.566C18.8604 200.019 21.3856 199.867 22.8542 198.228L16.892 192.968ZM19.873 61.598L21.4323 57.9416L19.873 61.598ZM106.594 29.5615C107.99 27.8605 107.736 25.363 106.027 23.983L78.1826 1.49541C76.4739 0.115467 73.9573 0.375697 72.5616 2.07667C71.1659 3.77763 71.4197 6.27521 73.1284 7.65516L97.8793 27.6441L77.6623 52.2831C76.2666 53.9841 76.5204 56.4816 78.2291 57.8616C79.9378 59.2415 82.4544 58.9813 83.8501 57.2803L106.594 29.5615ZM22.8542 198.228C28.6817 191.723 34.5598 181.097 39.3747 168.758C44.2172 156.348 48.1082 141.887 49.7886 127.511C51.4646 113.173 50.972 98.6591 46.8059 86.2936C42.6044 73.8232 34.6147 63.4465 21.4323 57.9416L18.3137 65.2545C28.9779 69.7079 35.5989 78.0604 39.2281 88.8322C42.8926 99.7089 43.4505 112.95 41.8524 126.623C40.2587 140.257 36.551 154.061 31.9259 165.914C27.2732 177.838 21.8146 187.473 16.892 192.968L22.8542 198.228ZM21.4323 57.9416C15.5991 55.5056 12.1041 53.4009 10.2713 51.7136C9.37377 50.8873 9.06756 50.3347 8.97534 50.0908C8.91831 49.94 8.94411 49.9473 8.94905 49.9338C9.07803 49.5821 9.89522 48.4503 12.8934 46.9245C15.6789 45.507 19.6029 44.1198 24.5125 42.7896C44.2221 37.4498 76.688 33.8215 103.901 31.0075L103.099 23.1183C76.102 25.91 42.9077 29.5909 22.433 35.138C17.2966 36.5296 12.7667 38.0878 9.26764 39.8685C5.9812 41.541 2.68299 43.8603 1.44272 47.2419C-0.0350515 51.2712 1.92956 54.8694 4.82823 57.5379C7.69544 60.1775 12.2236 62.7113 18.3137 65.2545L21.4323 57.9416Z" fill="#EA7600"/>
</svg>
