<svg width="38" height="27" viewBox="0 0 38 27" fill="none" xmlns="http://www.w3.org/2000/svg">
<mask id="path-1-inside-1_127_2" fill="white">
<ellipse cx="18.8892" cy="2.34783" rx="3.32335" ry="2.34783"/>
</mask>
<ellipse cx="18.8892" cy="2.34783" rx="3.32335" ry="2.34783" fill="#EA7600"/>
<path d="M17.2126 2.34783C17.2126 0.937571 18.0292 0.153882 18.3542 -0.0757322C18.5363 -0.204425 18.6783 -0.257727 18.7513 -0.279551C18.8286 -0.302635 18.8742 -0.304348 18.8892 -0.304348V9.69565C20.7169 9.69565 22.5835 9.18015 24.1242 8.09171C25.652 7.01235 27.2126 5.05475 27.2126 2.34783H17.2126ZM18.8892 -0.304348C18.9042 -0.304348 18.9499 -0.302635 19.0271 -0.279551C19.1002 -0.257727 19.2421 -0.204425 19.4242 -0.0757322C19.7493 0.153882 20.5659 0.937571 20.5659 2.34783H10.5659C10.5659 5.05475 12.1264 7.01235 13.6542 8.09171C15.1949 9.18015 17.0615 9.69565 18.8892 9.69565V-0.304348ZM20.5659 2.34783C20.5659 3.75808 19.7493 4.54177 19.4242 4.77138C19.2421 4.90008 19.1002 4.95338 19.0271 4.9752C18.9499 4.99829 18.9042 5 18.8892 5V-5C17.0615 -5 15.1949 -4.4845 13.6542 -3.39606C12.1264 -2.3167 10.5659 -0.359097 10.5659 2.34783H20.5659ZM18.8892 5C18.8742 5 18.8286 4.99829 18.7513 4.9752C18.6783 4.95338 18.5363 4.90008 18.3542 4.77138C18.0292 4.54177 17.2126 3.75808 17.2126 2.34783H27.2126C27.2126 -0.359097 25.652 -2.3167 24.1242 -3.39606C22.5835 -4.4845 20.7169 -5 18.8892 -5V5Z" fill="#EA7600" mask="url(#path-1-inside-1_127_2)"/>
<mask id="path-3-inside-2_127_2" fill="white">
<ellipse cx="18.8892" cy="23.4783" rx="7.75449" ry="3.52174"/>
</mask>
<ellipse cx="18.8892" cy="23.4783" rx="7.75449" ry="3.52174" fill="#EA7600"/>
<path d="M21.6437 23.4783C21.6437 22.3746 22.1567 21.6763 22.3754 21.4414C22.5682 21.2344 22.618 21.2738 22.3049 21.416C21.6883 21.6961 20.4854 22 18.8892 22V32C21.5758 32 24.2501 31.5156 26.44 30.521C28.1771 29.7321 31.6437 27.6195 31.6437 23.4783H21.6437ZM18.8892 22C17.2931 22 16.0901 21.6961 15.4735 21.416C15.1604 21.2738 15.2102 21.2344 15.4031 21.4414C15.6218 21.6763 16.1347 22.3746 16.1347 23.4783H6.13474C6.13474 27.6195 9.60135 29.7321 11.3384 30.521C13.5284 31.5156 16.2027 32 18.8892 32V22ZM16.1347 23.4783C16.1347 24.582 15.6218 25.2803 15.4031 25.5151C15.2102 25.7222 15.1604 25.6827 15.4735 25.5405C16.0901 25.2605 17.2931 24.9565 18.8892 24.9565V14.9565C16.2027 14.9565 13.5284 15.4409 11.3384 16.4355C9.60135 17.2244 6.13474 19.3371 6.13474 23.4783H16.1347ZM18.8892 24.9565C20.4854 24.9565 21.6883 25.2605 22.3049 25.5405C22.618 25.6827 22.5682 25.7222 22.3754 25.5151C22.1567 25.2803 21.6437 24.582 21.6437 23.4783H31.6437C31.6437 19.3371 28.1771 17.2244 26.44 16.4355C24.2501 15.4409 21.5758 14.9565 18.8892 14.9565V24.9565Z" fill="#EA7600" mask="url(#path-3-inside-2_127_2)"/>
<mask id="path-5-inside-3_127_2" fill="white">
<path fill-rule="evenodd" clip-rule="evenodd" d="M13.4223 2.23047C8.36305 2.23047 4.01386 5.81708 3.05044 10.7838C2.78801 12.1367 2.79504 13.4696 3.03033 14.7326H2.49401L0.5 23.4783H37.5L35.7275 14.7326H35.1912C35.4265 13.4696 35.4335 12.1367 35.1711 10.7838C34.2077 5.81708 29.8585 2.23047 24.7992 2.23047H13.4223Z"/>
</mask>
<path fill-rule="evenodd" clip-rule="evenodd" d="M13.4223 2.23047C8.36305 2.23047 4.01386 5.81708 3.05044 10.7838C2.78801 12.1367 2.79504 13.4696 3.03033 14.7326H2.49401L0.5 23.4783H37.5L35.7275 14.7326H35.1912C35.4265 13.4696 35.4335 12.1367 35.1711 10.7838C34.2077 5.81708 29.8585 2.23047 24.7992 2.23047H13.4223Z" fill="#EA7600"/>
<path d="M3.05044 10.7838L7.95895 11.7359L3.05044 10.7838ZM3.03033 14.7326V19.7326H9.04784L7.94576 13.8169L3.03033 14.7326ZM2.49401 14.7326V9.73261H-1.4943L-2.38088 13.6211L2.49401 14.7326ZM0.5 23.4783L-4.3749 22.3668L-5.76832 28.4783H0.5V23.4783ZM37.5 23.4783V28.4783H43.615L42.4004 22.4851L37.5 23.4783ZM35.7275 14.7326L40.6279 13.7395L39.8159 9.73261H35.7275V14.7326ZM35.1912 14.7326L30.2758 13.8169L29.1737 19.7326H35.1912V14.7326ZM35.1711 10.7838L30.2626 11.7359V11.7359L35.1711 10.7838ZM7.95895 11.7359C8.46643 9.11971 10.7574 7.23047 13.4223 7.23047V-2.76953C5.96874 -2.76953 -0.438703 2.51445 -1.85807 9.83165L7.95895 11.7359ZM7.94576 13.8169C7.82398 13.1632 7.81772 12.464 7.95895 11.7359L-1.85807 9.83165C-2.2417 11.8094 -2.23391 13.776 -1.8851 15.6483L7.94576 13.8169ZM2.49401 19.7326H3.03033V9.73261H2.49401V19.7326ZM5.3749 24.5897L7.36891 15.8441L-2.38088 13.6211L-4.3749 22.3668L5.3749 24.5897ZM37.5 18.4783H0.5V28.4783H37.5V18.4783ZM30.8272 15.7258L32.5996 24.4714L42.4004 22.4851L40.6279 13.7395L30.8272 15.7258ZM35.1912 19.7326H35.7275V9.73261H35.1912V19.7326ZM30.2626 11.7359C30.4038 12.464 30.3976 13.1632 30.2758 13.8169L40.1067 15.6483C40.4555 13.776 40.4633 11.8094 40.0796 9.83165L30.2626 11.7359ZM24.7992 7.23047C27.4642 7.23047 29.7551 9.11972 30.2626 11.7359L40.0796 9.83165C38.6603 2.51445 32.2528 -2.76953 24.7992 -2.76953V7.23047ZM13.4223 7.23047H24.7992V-2.76953H13.4223V7.23047Z" fill="#EA7600" mask="url(#path-5-inside-3_127_2)"/>
</svg>
