<svg width="40" height="38" viewBox="0 0 40 38" fill="none" xmlns="http://www.w3.org/2000/svg">
<path d="M18.3853 21C23.8414 21 28.0733 15.3558 28.0733 10.5V8.88461C28.0733 3.98596 23.7269 0 18.3853 0C13.0438 0 8.69739 3.98596 8.69739 8.88461V10.5C8.69739 15.3558 12.9293 21 18.3853 21Z" fill="#EA7600"/>
<path opacity="0.5" d="M39.9141 28.736L39.4062 23L37.5489 24.9838C36.2967 23.9353 34.7134 23.3553 33.0229 23.3553C29.2403 23.3553 26.145 26.2995 25.9204 30H27.5975C27.8264 27.2597 30.2151 25.0196 33.0229 25.0196C34.2809 25.0196 35.4594 25.4448 36.4031 26.2087L34.3103 28.4439L39.9141 28.736Z" fill="#F1C293"/>
<path opacity="0.5" d="M38.2378 31C38.009 33.7403 35.6203 35.9804 32.8125 35.9804C31.5544 35.9804 30.376 35.5552 29.4322 34.7913L31.5251 32.5561L25.9204 32.264L26.4283 38L28.2857 36.0162C29.5379 37.0647 31.1211 37.6447 32.8117 37.6447C36.5942 37.6447 39.6895 34.7005 39.9141 31H38.2378Z" fill="#F1C293"/>
<path d="M23.8153 31.2C23.8153 28.6152 25.0475 26.2984 26.9968 24.688C24.5729 24.2936 21.7236 24 18.5421 24C12.7829 24 8.06161 24.9504 5.11477 25.748C2.10728 26.5624 0.0858765 29.0288 0.0858765 31.8848V35.2C0.0858765 35.6416 0.478731 36 0.964746 36H23.8153V31.2Z" fill="#EA7600"/>
</svg>
