<svg width="202" height="80" viewBox="0 0 202 80" fill="none" xmlns="http://www.w3.org/2000/svg">
<path d="M2.376 75C2.216 75 2.072 74.944 1.944 74.832C1.832 74.72 1.776 74.576 1.776 74.4V58.8C1.776 58.624 1.832 58.48 1.944 58.368C2.072 58.256 2.216 58.2 2.376 58.2H4.608C4.848 58.2 5.024 58.264 5.136 58.392C5.264 58.52 5.352 58.616 5.4 58.68L9.816 66.816L14.28 58.68C14.312 58.616 14.384 58.52 14.496 58.392C14.624 58.264 14.808 58.2 15.048 58.2H17.28C17.456 58.2 17.6 58.256 17.712 58.368C17.824 58.48 17.88 58.624 17.88 58.8V74.4C17.88 74.576 17.824 74.72 17.712 74.832C17.6 74.944 17.456 75 17.28 75H14.832C14.672 75 14.536 74.944 14.424 74.832C14.312 74.72 14.256 74.576 14.256 74.4V64.704L11.208 70.416C11.128 70.56 11.024 70.688 10.896 70.8C10.768 70.912 10.6 70.968 10.392 70.968H9.264C9.056 70.968 8.888 70.912 8.76 70.8C8.632 70.688 8.528 70.56 8.448 70.416L5.4 64.704V74.4C5.4 74.576 5.344 74.72 5.232 74.832C5.12 74.944 4.984 75 4.824 75H2.376ZM29.3121 75.24C27.8561 75.24 26.6001 75 25.5441 74.52C24.4881 74.04 23.6641 73.32 23.0721 72.36C22.4801 71.384 22.1601 70.16 22.1121 68.688C22.0961 68 22.0881 67.32 22.0881 66.648C22.0881 65.96 22.0961 65.264 22.1121 64.56C22.1601 63.12 22.4801 61.912 23.0721 60.936C23.6801 59.944 24.5121 59.2 25.5681 58.704C26.6401 58.208 27.8881 57.96 29.3121 57.96C30.7201 57.96 31.9521 58.208 33.0081 58.704C34.0801 59.2 34.9201 59.944 35.5281 60.936C36.1361 61.912 36.4561 63.12 36.4881 64.56C36.5201 65.264 36.5361 65.96 36.5361 66.648C36.5361 67.32 36.5201 68 36.4881 68.688C36.4401 70.16 36.1201 71.384 35.5281 72.36C34.9361 73.32 34.1121 74.04 33.0561 74.52C32.0001 75 30.7521 75.24 29.3121 75.24ZM29.3121 72.144C30.2401 72.144 31.0001 71.864 31.5921 71.304C32.2001 70.728 32.5201 69.816 32.5521 68.568C32.5841 67.864 32.6001 67.208 32.6001 66.6C32.6001 65.976 32.5841 65.32 32.5521 64.632C32.5361 63.8 32.3841 63.12 32.0961 62.592C31.8081 62.064 31.4241 61.68 30.9441 61.44C30.4801 61.184 29.9361 61.056 29.3121 61.056C28.6881 61.056 28.1361 61.184 27.6561 61.44C27.1761 61.68 26.7921 62.064 26.5041 62.592C26.2321 63.12 26.0801 63.8 26.0481 64.632C26.0321 65.32 26.0241 65.976 26.0241 66.6C26.0241 67.208 26.0321 67.864 26.0481 68.568C26.0961 69.816 26.4161 70.728 27.0081 71.304C27.6001 71.864 28.3681 72.144 29.3121 72.144ZM44.7298 75C44.5538 75 44.4098 74.944 44.2978 74.832C44.1858 74.72 44.1298 74.576 44.1298 74.4V61.536H39.7618C39.6018 61.536 39.4658 61.48 39.3538 61.368C39.2418 61.256 39.1858 61.12 39.1858 60.96V58.8C39.1858 58.624 39.2418 58.48 39.3538 58.368C39.4658 58.256 39.6018 58.2 39.7618 58.2H52.3378C52.5138 58.2 52.6578 58.256 52.7698 58.368C52.8818 58.48 52.9378 58.624 52.9378 58.8V60.96C52.9378 61.12 52.8818 61.256 52.7698 61.368C52.6578 61.48 52.5138 61.536 52.3378 61.536H47.9938V74.4C47.9938 74.576 47.9378 74.72 47.8258 74.832C47.7138 74.944 47.5698 75 47.3938 75H44.7298ZM50.2543 75C50.137 75 50.041 74.9627 49.9663 74.888C49.8916 74.8133 49.8543 74.7173 49.8543 74.6V64.2C49.8543 64.0827 49.8916 63.9867 49.9663 63.912C50.041 63.8373 50.137 63.8 50.2543 63.8H52.0623C52.1796 63.8 52.2756 63.8373 52.3503 63.912C52.425 63.9867 52.4623 64.0827 52.4623 64.2V74.6C52.4623 74.7173 52.425 74.8133 52.3503 74.888C52.2756 74.9627 52.1796 75 52.0623 75H50.2543ZM62.8871 75.24C61.4311 75.24 60.1751 75 59.1191 74.52C58.0631 74.04 57.2391 73.32 56.6471 72.36C56.0551 71.384 55.7351 70.16 55.6871 68.688C55.6711 68 55.6631 67.32 55.6631 66.648C55.6631 65.96 55.6711 65.264 55.6871 64.56C55.7351 63.12 56.0551 61.912 56.6471 60.936C57.2551 59.944 58.0871 59.2 59.1431 58.704C60.2151 58.208 61.4631 57.96 62.8871 57.96C64.2951 57.96 65.5271 58.208 66.5831 58.704C67.6551 59.2 68.4951 59.944 69.1031 60.936C69.7111 61.912 70.0311 63.12 70.0631 64.56C70.0951 65.264 70.1111 65.96 70.1111 66.648C70.1111 67.32 70.0951 68 70.0631 68.688C70.0151 70.16 69.6951 71.384 69.1031 72.36C68.5111 73.32 67.6871 74.04 66.6311 74.52C65.5751 75 64.3271 75.24 62.8871 75.24ZM62.8871 72.144C63.8151 72.144 64.5751 71.864 65.1671 71.304C65.7751 70.728 66.0951 69.816 66.1271 68.568C66.1591 67.864 66.1751 67.208 66.1751 66.6C66.1751 65.976 66.1591 65.32 66.1271 64.632C66.1111 63.8 65.9591 63.12 65.6711 62.592C65.3831 62.064 64.9991 61.68 64.5191 61.44C64.0551 61.184 63.5111 61.056 62.8871 61.056C62.2631 61.056 61.7111 61.184 61.2311 61.44C60.7511 61.68 60.3671 62.064 60.0791 62.592C59.8071 63.12 59.6551 63.8 59.6231 64.632C59.6071 65.32 59.5991 65.976 59.5991 66.6C59.5991 67.208 59.6071 67.864 59.6231 68.568C59.6711 69.816 59.9911 70.728 60.5831 71.304C61.1751 71.864 61.9431 72.144 62.8871 72.144ZM74.8901 75C74.7141 75 74.5701 74.944 74.4581 74.832C74.3461 74.72 74.2901 74.576 74.2901 74.4V58.8C74.2901 58.624 74.3461 58.48 74.4581 58.368C74.5701 58.256 74.7141 58.2 74.8901 58.2H77.0741C77.3141 58.2 77.4901 58.256 77.6021 58.368C77.7141 58.48 77.7861 58.568 77.8181 58.632L84.2261 68.64V58.8C84.2261 58.624 84.2821 58.48 84.3941 58.368C84.5061 58.256 84.6421 58.2 84.8021 58.2H87.2501C87.4261 58.2 87.5701 58.256 87.6821 58.368C87.7941 58.48 87.8501 58.624 87.8501 58.8V74.4C87.8501 74.56 87.7941 74.704 87.6821 74.832C87.5701 74.944 87.4261 75 87.2501 75H85.0421C84.8021 75 84.6261 74.944 84.5141 74.832C84.4181 74.704 84.3461 74.616 84.2981 74.568L77.9141 64.872V74.4C77.9141 74.576 77.8581 74.72 77.7461 74.832C77.6341 74.944 77.4901 75 77.3141 75H74.8901ZM101.16 75C100.984 75 100.848 74.952 100.752 74.856C100.656 74.744 100.608 74.608 100.608 74.448V58.776C100.608 58.6 100.656 58.464 100.752 58.368C100.848 58.256 100.984 58.2 101.16 58.2H107.016C108.824 58.2 110.256 58.624 111.312 59.472C112.368 60.32 112.896 61.576 112.896 63.24C112.896 64.472 112.584 65.48 111.96 66.264C111.352 67.032 110.52 67.568 109.464 67.872L113.16 74.256C113.208 74.352 113.232 74.44 113.232 74.52C113.232 74.648 113.176 74.76 113.064 74.856C112.968 74.952 112.856 75 112.728 75H111.576C111.304 75 111.104 74.928 110.976 74.784C110.848 74.64 110.736 74.496 110.64 74.352L107.16 68.256H102.96V74.448C102.96 74.608 102.904 74.744 102.792 74.856C102.696 74.952 102.56 75 102.384 75H101.16ZM102.96 66.216H106.92C108.12 66.216 109.016 65.968 109.608 65.472C110.2 64.96 110.496 64.208 110.496 63.216C110.496 62.24 110.2 61.496 109.608 60.984C109.032 60.472 108.136 60.216 106.92 60.216H102.96V66.216ZM118.087 75C117.911 75 117.775 74.952 117.679 74.856C117.583 74.744 117.535 74.608 117.535 74.448V58.776C117.535 58.6 117.583 58.464 117.679 58.368C117.775 58.256 117.911 58.2 118.087 58.2H127.999C128.175 58.2 128.311 58.256 128.407 58.368C128.503 58.464 128.551 58.6 128.551 58.776V59.688C128.551 59.864 128.503 60 128.407 60.096C128.311 60.192 128.175 60.24 127.999 60.24H119.839V65.496H127.471C127.647 65.496 127.783 65.552 127.879 65.664C127.975 65.76 128.023 65.896 128.023 66.072V66.96C128.023 67.12 127.975 67.256 127.879 67.368C127.783 67.464 127.647 67.512 127.471 67.512H119.839V72.96H128.191C128.367 72.96 128.503 73.008 128.599 73.104C128.695 73.2 128.743 73.336 128.743 73.512V74.448C128.743 74.608 128.695 74.744 128.599 74.856C128.503 74.952 128.367 75 128.191 75H118.087ZM138.094 75C137.854 75 137.662 74.944 137.518 74.832C137.39 74.72 137.286 74.568 137.206 74.376L131.854 58.944C131.822 58.848 131.806 58.76 131.806 58.68C131.806 58.552 131.854 58.44 131.95 58.344C132.046 58.248 132.158 58.2 132.286 58.2H133.534C133.726 58.2 133.87 58.256 133.966 58.368C134.078 58.464 134.142 58.552 134.158 58.632L138.862 72.24L143.566 58.632C143.598 58.552 143.662 58.464 143.758 58.368C143.854 58.256 143.998 58.2 144.19 58.2H145.438C145.566 58.2 145.678 58.248 145.774 58.344C145.886 58.44 145.942 58.552 145.942 58.68C145.942 58.76 145.926 58.848 145.894 58.944L140.518 74.376C140.454 74.568 140.35 74.72 140.206 74.832C140.078 74.944 139.894 75 139.654 75H138.094ZM150.557 75C150.381 75 150.245 74.952 150.149 74.856C150.053 74.744 150.005 74.608 150.005 74.448V58.752C150.005 58.592 150.053 58.464 150.149 58.368C150.245 58.256 150.381 58.2 150.557 58.2H151.829C151.989 58.2 152.117 58.256 152.213 58.368C152.325 58.464 152.381 58.592 152.381 58.752V74.448C152.381 74.608 152.325 74.744 152.213 74.856C152.117 74.952 151.989 75 151.829 75H150.557ZM162.76 75C162.52 75 162.328 74.944 162.184 74.832C162.056 74.72 161.952 74.568 161.872 74.376L156.52 58.944C156.488 58.848 156.472 58.76 156.472 58.68C156.472 58.552 156.52 58.44 156.616 58.344C156.712 58.248 156.824 58.2 156.952 58.2H158.2C158.392 58.2 158.536 58.256 158.632 58.368C158.744 58.464 158.808 58.552 158.824 58.632L163.528 72.24L168.232 58.632C168.264 58.552 168.328 58.464 168.424 58.368C168.52 58.256 168.664 58.2 168.856 58.2H170.104C170.232 58.2 170.344 58.248 170.44 58.344C170.552 58.44 170.608 58.552 170.608 58.68C170.608 58.76 170.592 58.848 170.56 58.944L165.184 74.376C165.12 74.568 165.016 74.72 164.872 74.832C164.744 74.944 164.56 75 164.32 75H162.76ZM175.223 75C175.047 75 174.911 74.952 174.815 74.856C174.719 74.744 174.671 74.608 174.671 74.448V58.776C174.671 58.6 174.719 58.464 174.815 58.368C174.911 58.256 175.047 58.2 175.223 58.2H185.135C185.311 58.2 185.447 58.256 185.543 58.368C185.639 58.464 185.687 58.6 185.687 58.776V59.688C185.687 59.864 185.639 60 185.543 60.096C185.447 60.192 185.311 60.24 185.135 60.24H176.975V65.496H184.607C184.783 65.496 184.919 65.552 185.015 65.664C185.111 65.76 185.159 65.896 185.159 66.072V66.96C185.159 67.12 185.111 67.256 185.015 67.368C184.919 67.464 184.783 67.512 184.607 67.512H176.975V72.96H185.327C185.503 72.96 185.639 73.008 185.735 73.104C185.831 73.2 185.879 73.336 185.879 73.512V74.448C185.879 74.608 185.831 74.744 185.735 74.856C185.639 74.952 185.503 75 185.327 75H175.223Z" fill="#EA7600"/>
<path fill-rule="evenodd" clip-rule="evenodd" d="M74.5209 24.5804C74.5209 36.9401 64.4998 46.9596 52.1381 46.9596C39.7764 46.9596 29.7552 36.9401 29.7552 24.5804C29.7552 12.2207 39.7764 2.20123 52.1381 2.20123C64.4998 2.20123 74.5209 12.2207 74.5209 24.5804ZM52.1381 46.2259C64.0945 46.2259 73.787 36.5349 73.787 24.5804C73.787 12.626 64.0945 2.93498 52.1381 2.93498C40.1817 2.93498 30.4891 12.626 30.4891 24.5804C30.4891 36.5349 40.1817 46.2259 52.1381 46.2259Z" fill="#EA7600"/>
<path d="M163.007 24.5804C163.007 36.5349 153.314 46.2259 141.358 46.2259C129.402 46.2259 119.709 36.5349 119.709 24.5804C119.709 12.626 129.402 2.93498 141.358 2.93498C153.314 2.93498 163.007 12.626 163.007 24.5804Z" fill="#EA7600"/>
<path fill-rule="evenodd" clip-rule="evenodd" d="M144.512 24.5804C144.512 38.1558 133.505 49.1608 119.928 49.1608C106.35 49.1608 95.3433 38.1558 95.3433 24.5804C95.3433 11.005 106.35 0 119.928 0C133.505 0 144.512 11.005 144.512 24.5804ZM119.928 46.2259C131.884 46.2259 141.577 36.5349 141.577 24.5804C141.577 12.626 131.884 2.93498 119.928 2.93498C107.971 2.93498 98.2788 12.626 98.2788 24.5804C98.2788 36.5349 107.971 46.2259 119.928 46.2259Z" fill="#EA7600"/>
<path fill-rule="evenodd" clip-rule="evenodd" d="M120.599 24.5804C120.599 37.7295 110.039 48.4271 96.9667 48.4271C83.8942 48.4271 73.3349 37.7295 73.3349 24.5804C73.3349 11.4314 83.8942 0.733744 96.9667 0.733744C110.039 0.733744 120.599 11.4314 120.599 24.5804ZM96.9667 46.2259C108.802 46.2259 118.397 36.5349 118.397 24.5804C118.397 12.626 108.802 2.93498 96.9667 2.93498C85.1311 2.93498 75.5364 12.626 75.5364 24.5804C75.5364 36.5349 85.1311 46.2259 96.9667 46.2259Z" fill="#EA7600"/>
<path fill-rule="evenodd" clip-rule="evenodd" d="M97.1224 24.5804C97.1224 37.3453 86.7727 47.6934 74.0057 47.6934C61.2387 47.6934 50.889 37.3453 50.889 24.5804C50.889 11.8155 61.2387 1.46749 74.0057 1.46749C86.7727 1.46749 97.1224 11.8155 97.1224 24.5804ZM74.0057 46.2259C85.9621 46.2259 95.6547 36.5349 95.6547 24.5804C95.6547 12.626 85.9621 2.93498 74.0057 2.93498C62.0493 2.93498 52.3567 12.626 52.3567 24.5804C52.3567 36.5349 62.0493 46.2259 74.0057 46.2259Z" fill="#EA7600"/>
</svg>
