<svg width="38" height="20" viewBox="0 0 38 20" fill="none" xmlns="http://www.w3.org/2000/svg">
<path d="M6.74541 14.1176C10.3897 14.1176 13.344 12.2741 13.344 9.99997C13.344 7.72586 10.3897 5.88232 6.74541 5.88232C3.10109 5.88232 0.14679 7.72586 0.14679 9.99997C0.14679 12.2741 3.10109 14.1176 6.74541 14.1176Z" fill="#EA7600"/>
<path d="M31.2546 8.23529C34.8989 8.23529 37.8532 6.39176 37.8532 4.11765C37.8532 1.84353 34.8989 0 31.2546 0C27.6102 0 24.6559 1.84353 24.6559 4.11765C24.6559 6.39176 27.6102 8.23529 31.2546 8.23529Z" fill="#EA7600"/>
<path d="M31.2546 19.9999C34.8989 19.9999 37.8532 18.1564 37.8532 15.8823C37.8532 13.6082 34.8989 11.7646 31.2546 11.7646C27.6102 11.7646 24.6559 13.6082 24.6559 15.8823C24.6559 18.1564 27.6102 19.9999 31.2546 19.9999Z" fill="#EA7600"/>
</svg>
