<svg width="38" height="41" viewBox="0 0 38 41" fill="none" xmlns="http://www.w3.org/2000/svg">
<path opacity="0.4" d="M22.6616 22.3831H16.4103C15.979 22.3831 15.6289 22.7789 15.6289 23.2667V39.1722C15.6289 39.6599 15.979 40.0558 16.4103 40.0558H22.6616C23.093 40.0558 23.4431 39.6599 23.4431 39.1722V23.2667C23.4431 22.7789 23.093 22.3831 22.6616 22.3831Z" fill="#EEA962"/>
<path opacity="0.3" d="M7.03289 31.8103H0.781541C0.350198 31.8103 0.00012207 32.1798 0.00012207 32.635V39.2329C0.00012207 39.6881 0.350198 40.0576 0.781541 40.0576H7.03289C7.46423 40.0576 7.81431 39.6881 7.81431 39.2329V32.635C7.81431 32.1798 7.46423 31.8103 7.03289 31.8103Z" fill="#F3DCC4"/>
<path opacity="0.7" d="M37.173 14.1401H30.9217C30.4903 14.1401 30.1403 14.5272 30.1403 15.0041V39.1962C30.1403 39.6731 30.4903 40.0602 30.9217 40.0602H37.173C37.6044 40.0602 37.9544 39.6731 37.9544 39.1962V15.0041C37.9544 14.5272 37.6044 14.1401 37.173 14.1401Z" fill="#EA7600"/>
<path d="M19.4236 13.5864L29.6016 2.95308V8.6499C29.6016 9.12738 29.9726 9.51489 30.4296 9.51489C30.8866 9.51489 31.2576 9.12738 31.2576 8.6499V0.86499C31.2576 0.387516 30.8866 0 30.4296 0H22.978C22.521 0 22.1501 0.387516 22.1501 0.86499C22.1501 1.34246 22.521 1.72998 22.978 1.72998H28.4309L18.8383 11.7518L12.8 5.44338C12.4763 5.10517 11.953 5.10517 11.6293 5.44338L3.34976 14.0933L4.52049 15.3164L12.2146 7.27803L18.2529 13.5864C18.5766 13.9246 19.0999 13.9246 19.4236 13.5864Z" fill="#EA7600"/>
</svg>
